<?xml version="1.0" encoding="UTF-8" standalone="no"?>
<svg
   xmlns:dc="http://purl.org/dc/elements/1.1/"
   xmlns:cc="http://creativecommons.org/ns#"
   xmlns:rdf="http://www.w3.org/1999/02/22-rdf-syntax-ns#"
   xmlns:svg="http://www.w3.org/2000/svg"
   xmlns="http://www.w3.org/2000/svg"
   xmlns:sodipodi="http://sodipodi.sourceforge.net/DTD/sodipodi-0.dtd"
   xmlns:inkscape="http://www.inkscape.org/namespaces/inkscape"
   width="256"
   height="256"
   viewBox="0 0 67.733332 67.733335"
   version="1.1"
   id="svg844"
   inkscape:version="1.0.1 (3bc2e813f5, 2020-09-07)"
   sodipodi:docname="WindowIcon.svg"
   inkscape:export-filename="D:\DRGmodding\Github\DRGLib\DRGLib UE project\Content\DRGLib\Textures\LIB_T_WindowIcon.png"
   inkscape:export-xdpi="96"
   inkscape:export-ydpi="96">
  <defs
     id="defs838">
    <inkscape:path-effect
       effect="powerclip"
       id="path-effect1176"
       is_visible="true"
       lpeversion="1"
       inverse="true"
       flatten="false"
       hide_clip="false"
       message="Use fill-rule evenodd on &lt;b&gt;fill and stroke&lt;/b&gt; dialog if no flatten result after convert clip to paths." />
    <inkscape:path-effect
       effect="powerclip"
       id="path-effect958"
       is_visible="true"
       lpeversion="1"
       inverse="true"
       flatten="false"
       hide_clip="false"
       message="Use fill-rule evenodd on &lt;b&gt;fill and stroke&lt;/b&gt; dialog if no flatten result after convert clip to paths." />
    <clipPath
       clipPathUnits="userSpaceOnUse"
       id="clipPath1172">
      <path
         id="path1174"
         style="display:none;fill:#000000;stroke-width:0.999995"
         d="m 64.207483,11.484593 c 0.199792,0.05628 0.376751,0.220113 0.452773,0.419184 0.05278,0.138199 0.04099,0.401805 -0.02373,0.530466 -0.02371,0.04713 -0.50624,0.550172 -1.072301,1.117868 l -1.0292,1.032174 1.022012,1.013269 c 1.16532,1.155348 1.154925,1.141948 1.134358,1.462431 -0.01775,0.276701 -0.153029,0.469316 -0.409683,0.58335 -0.134318,0.05968 -0.432467,0.05046 -0.566552,-0.01752 -0.04724,-0.02395 -0.546873,-0.503184 -1.110298,-1.064968 l -1.024403,-1.021425 -1.024681,1.020007 c -0.676907,0.673817 -1.058,1.035542 -1.122844,1.065778 -0.141187,0.06583 -0.403725,0.0769 -0.544939,0.02297 -0.253746,-0.09691 -0.423716,-0.343208 -0.424153,-0.614637 -5.29e-4,-0.317431 -0.02812,-0.282012 1.112996,-1.427959 l 1.032709,-1.037082 -1.033137,-1.03655 c -1.154785,-1.158598 -1.127263,-1.122988 -1.108332,-1.434038 0.02331,-0.382908 0.289496,-0.633474 0.670377,-0.631029 0.128411,8.2e-4 0.19966,0.0152 0.282208,0.05695 0.07541,0.03813 0.435327,0.379989 1.134837,1.077878 l 1.024406,1.022029 1.036955,-1.034496 c 0.740233,-0.738475 1.064279,-1.045676 1.132438,-1.073568 0.134482,-0.05504 0.32684,-0.06808 0.458174,-0.03108 z M 2.3623512,19.443466 H 65.37098 V 56.705228 H 2.3623512 Z" />
      <path
         id="lpe_path-effect1176"
         style="fill:#000000;stroke-width:0.999995"
         class="powerclip"
         d="M -5,5.3109245 H 72.73333 V 64.045521 H -5 Z m 69.207483,6.1736685 -1e-5,2e-6 c -0.131334,-0.037 -0.323692,-0.02396 -0.458174,0.03108 -0.06816,0.02789 -0.392205,0.335093 -1.132438,1.073568 L 61.579906,13.623739 60.5555,12.60171 c -0.69951,-0.697889 -1.059427,-1.039748 -1.134837,-1.077878 -0.08255,-0.04175 -0.153797,-0.05613 -0.282208,-0.05695 -0.380881,-0.0024 -0.647067,0.248121 -0.670377,0.631029 -0.01893,0.31105 -0.04645,0.27544 1.108332,1.434038 l 1.033137,1.03655 -1.032709,1.037082 c -1.141116,1.145947 -1.113525,1.110528 -1.112996,1.427959 4.37e-4,0.271429 0.170407,0.517727 0.424153,0.614637 0.141214,0.05393 0.403752,0.04286 0.544939,-0.02297 0.06484,-0.03024 0.445937,-0.391961 1.122844,-1.065778 l 1.024681,-1.020007 1.024403,1.021425 c 0.563425,0.561784 1.063058,1.041018 1.110298,1.064968 0.134085,0.06798 0.432234,0.0772 0.566552,0.01752 0.256654,-0.114034 0.391933,-0.306649 0.409683,-0.58335 0.02057,-0.320483 0.03096,-0.307083 -1.134358,-1.462431 l -1.022012,-1.013269 1.0292,-1.032174 c 0.566061,-0.567696 1.048591,-1.070738 1.072301,-1.117868 0.06472,-0.128661 0.07651,-0.392267 0.02373,-0.530466 -0.07602,-0.199071 -0.252981,-0.362904 -0.452773,-0.419184 z M 2.3623512,19.443466 V 56.705228 H 65.37098 V 19.443466 Z" />
    </clipPath>
  </defs>
  <sodipodi:namedview
     id="base"
     pagecolor="#646464"
     bordercolor="#323232"
     borderopacity="1"
     inkscape:pageopacity="0"
     inkscape:pageshadow="2"
     inkscape:zoom="2.8"
     inkscape:cx="99.688285"
     inkscape:cy="120.01901"
     inkscape:document-units="px"
     inkscape:current-layer="layer1"
     inkscape:document-rotation="0"
     showgrid="false"
     units="px"
     inkscape:pagecheckerboard="true"
     borderlayer="true"
     inkscape:window-width="1920"
     inkscape:window-height="1017"
     inkscape:window-x="-8"
     inkscape:window-y="-8"
     inkscape:window-maximized="1">
    <sodipodi:guide
       position="0,67.733334"
       orientation="0,256"
       id="guide1407" />
    <sodipodi:guide
       position="67.733334,67.733334"
       orientation="256,0"
       id="guide1409" />
    <sodipodi:guide
       position="67.733334,0"
       orientation="0,-256"
       id="guide1411" />
    <sodipodi:guide
       position="0,0"
       orientation="-256,0"
       id="guide1413" />
  </sodipodi:namedview>
  <metadata
     id="metadata841">
    <rdf:RDF>
      <cc:Work
         rdf:about="">
        <dc:format>image/svg+xml</dc:format>
        <dc:type
           rdf:resource="http://purl.org/dc/dcmitype/StillImage" />
        <dc:title />
        <cc:license
           rdf:resource="http://creativecommons.org/licenses/by/4.0/" />
      </cc:Work>
      <cc:License
         rdf:about="http://creativecommons.org/licenses/by/4.0/">
        <cc:permits
           rdf:resource="http://creativecommons.org/ns#Reproduction" />
        <cc:permits
           rdf:resource="http://creativecommons.org/ns#Distribution" />
        <cc:requires
           rdf:resource="http://creativecommons.org/ns#Notice" />
        <cc:requires
           rdf:resource="http://creativecommons.org/ns#Attribution" />
        <cc:permits
           rdf:resource="http://creativecommons.org/ns#DerivativeWorks" />
      </cc:License>
    </rdf:RDF>
  </metadata>
  <g
     inkscape:label="Layer 1"
     inkscape:groupmode="layer"
     id="layer1">
    <path
       style="fill:#ffffff;stroke-width:3.96875;stroke-linecap:round;paint-order:stroke markers fill"
       id="rect834"
       width="67.73333"
       height="48.734596"
       x="0"
       y="10.310925"
       inkscape:label="MainBorder"
       sodipodi:type="rect"
       clip-path="url(#clipPath1172)"
       d="M 0,10.310925 H 67.73333 V 59.045521 H 0 Z"
       inkscape:path-effect="#path-effect1176" />
  </g>
</svg>
